<svg width="64" height="69" viewBox="0 0 64 69" fill="none" xmlns="http://www.w3.org/2000/svg">
<path fill-rule="evenodd" clip-rule="evenodd" d="M17 11V24C17 29.5 22 31.5 22 31.5C22 31.5 17 33.5 17 39V59C17 64.5 20.5 68 26 68H37C42.5 68 47 64.5 47 59V39C47 33.5 42 31.5 42 31.5C42 31.5 47 29.5 47 24V11C47 5.5 42.5 1 37 1H27C21 0.999997 17 5.5 17 11ZM28 35H36C39 35 40 36 40 39V58C40 61 39 62 36 62H28C25 62 24 61 24 58V39C24 36 25 35 28 35ZM28 28H36C39 28 40 26.5 40 23.5V12C40 9 39 7 36 7.00003H28C25 7 24 9.00003 24 12V23.5C24 26.5 25.0001 28 28 28Z" fill="white"/>
<path d="M36 35C33 35.0001 31 35.0001 28 35M36 35C39 35 40 36 40 39M36 35H28M28 35C25 35 24 36 24 39M24 39C24 42 24 55 24 58M24 39V58M24 58C24 61 25 62 28 62M28 62C31 62 33 62 36 62M28 62H36M36 62C39 62 40 61 40 58M40 58C40 55 40 42 40 39M40 58V39M36 28C33 28 31 28 28 28M36 28C39 28 40 26.5 40 23.5M36 28H28M28 28C25.0001 28 24 26.5 24 23.5M24 23.5C24 20.5 24 15 24 12M24 23.5V12M24 12C24 9.00003 25 7 28 7.00003M28 7.00003C31 7.00006 33 7.00006 36 7.00003M28 7.00003H36M36 7.00003C39 7 40 9 40 12M40 12C40 15.0001 40 20.5 40 23.5M40 12V23.5M17 11C17 16.5 17 24 17 24M17 11C17 5.5 21 0.999997 27 1M17 11V24M17 24C17 29.5 22 31.5 22 31.5C22 31.5 17 33.5 17 39M17 39C17 39 17 53.5 17 59M17 39V59M17 59C17 64.5 20.5 68 26 68M26 68C31.5 68 31.5 68 37 68M26 68H37M37 68C42.5 68 47 64.5 47 59M47 59C47 53.5 47 44.5 47 39M47 59V39M47 39C47 33.5 42 31.5 42 31.5C42 31.5 47 29.5 47 24M47 24C47 18.5 47 16.5 47 11M47 24V11M47 11C47 5.5 42.5 1 37 1M37 1C31.5 1 33 1 27 1M37 1H27" stroke="white"/>
<path d="M61 1C62.5 1 63 2 63 3.5V66C63 67 62 67.5 61 67.5H52.5V62H57.5V6.5H52V1H56.5H61Z" fill="#EE030C"/>
<path d="M12 1H3C1.50001 1 1 2 1 3.5V66C1.00001 67 1.5 67.5 3 67.5H11.5V62H6.5V6.5H12V1Z" fill="#EE030C"/>
<path d="M12 1C12 1 4.5 1 3 1M12 1V6.5H6.5V62H11.5V67.5M12 1H3M3 1C1.50001 1 1 2 1 3.5M1 3.5C1 5 0.999998 65 1 66M1 3.5V66M1 66C1.00001 67 1.5 67.5 3 67.5M3 67.5C4.5 67.5 11.5 67.5 11.5 67.5M3 67.5H11.5M61 1C62.5 1 63 2 63 3.5M61 1C59.5 1 56.5 1 56.5 1M61 1H56.5M63 3.5C63 5 63 65 63 66M63 3.5V66M63 66C63 67 62 67.5 61 67.5M61 67.5C60 67.5 52.5 67.5 52.5 67.5M61 67.5H52.5M52.5 67.5V62H57.5V6.5H52V1H56.5" stroke="#EE030C"/>
</svg>
