<svg width="46" height="48" viewBox="0 0 46 48" fill="none" xmlns="http://www.w3.org/2000/svg">
  <style>
    <![CDATA[  
      #d {
        fill: black;
      } 
      #dr {
        fill: black;
      } 
      @media (prefers-color-scheme: dark) {
        #d {
        fill: white;
      } 
      #dr {
        fill: white;
      } 
      }
    ]]> 
  </style>
<style>
</style>
<path id="d" fill-rule="evenodd" clip-rule="evenodd" d="M12.3548 7.86567V16.791C12.3548 20.5672 15.9032 21.9403 15.9032 21.9403C15.9032 21.9403 12.3548 23.3134 12.3548 27.0896V40.8209C12.3548 44.597 14.8387 47 18.7419 47H26.5484C30.4516 47 33.6452 44.597 33.6452 40.8209V27.0896C33.6452 23.3134 30.0968 21.9403 30.0968 21.9403C30.0968 21.9403 33.6452 20.5672 33.6452 16.791V7.86567C33.6452 4.08955 30.4516 1 26.5484 1H19.4516C15.1936 0.999998 12.3548 4.08955 12.3548 7.86567ZM20.1613 24.3433H25.8387C27.9678 24.3433 28.6774 25.0298 28.6774 27.0896V40.1343C28.6774 42.194 27.9678 42.8806 25.8387 42.8806H20.1613C18.0323 42.8806 17.3226 42.194 17.3226 40.1343V27.0896C17.3226 25.0298 18.0323 24.3433 20.1613 24.3433ZM20.1613 19.5373H25.8387C27.9678 19.5373 28.6774 18.5075 28.6774 16.4478V8.55226C28.6774 6.49254 27.9678 5.1194 25.8387 5.11942H20.1613C18.0323 5.1194 17.3226 6.49256 17.3226 8.55226V16.4478C17.3226 18.5075 18.0323 19.5373 20.1613 19.5373Z" fill="black"/>
<path id="dr" d="M25.8387 24.3433C23.7097 24.3433 22.2903 24.3433 20.1613 24.3433M25.8387 24.3433C27.9678 24.3433 28.6774 25.0298 28.6774 27.0896M25.8387 24.3433H20.1613M20.1613 24.3433C18.0323 24.3433 17.3226 25.0298 17.3226 27.0896M17.3226 27.0896C17.3226 29.1493 17.3226 38.0747 17.3226 40.1343M17.3226 27.0896V40.1343M17.3226 40.1343C17.3226 42.194 18.0323 42.8806 20.1613 42.8806M20.1613 42.8806C22.2903 42.8806 23.7097 42.8806 25.8387 42.8806M20.1613 42.8806H25.8387M25.8387 42.8806C27.9678 42.8806 28.6774 42.194 28.6774 40.1343M28.6774 40.1343C28.6774 38.0747 28.6774 29.1493 28.6774 27.0896M28.6774 40.1343V27.0896M25.8387 19.5373C23.7097 19.5373 22.2903 19.5373 20.1613 19.5373M25.8387 19.5373C27.9678 19.5373 28.6774 18.5075 28.6774 16.4478M25.8387 19.5373H20.1613M20.1613 19.5373C18.0323 19.5373 17.3226 18.5075 17.3226 16.4478M17.3226 16.4478C17.3226 14.3881 17.3226 10.612 17.3226 8.55226M17.3226 16.4478V8.55226M17.3226 8.55226C17.3226 6.49256 18.0323 5.1194 20.1613 5.11942M20.1613 5.11942C22.2903 5.11945 23.7097 5.11945 25.8387 5.11942M20.1613 5.11942H25.8387M25.8387 5.11942C27.9678 5.1194 28.6774 6.49254 28.6774 8.55226M28.6774 8.55226C28.6774 10.612 28.6774 14.3881 28.6774 16.4478M28.6774 8.55226V16.4478M12.3548 7.86567C12.3548 11.6418 12.3548 16.791 12.3548 16.791M12.3548 7.86567C12.3548 4.08955 15.1936 0.999998 19.4516 1M12.3548 7.86567V16.791M12.3548 16.791C12.3548 20.5672 15.9032 21.9403 15.9032 21.9403C15.9032 21.9403 12.3548 23.3134 12.3548 27.0896M12.3548 27.0896C12.3548 27.0896 12.3548 37.0448 12.3548 40.8209M12.3548 27.0896V40.8209M12.3548 40.8209C12.3548 44.597 14.8387 47 18.7419 47M18.7419 47C22.6452 47 22.6452 47 26.5484 47M18.7419 47H26.5484M26.5484 47C30.4516 47 33.6452 44.597 33.6452 40.8209M33.6452 40.8209C33.6452 37.0448 33.6452 30.8657 33.6452 27.0896M33.6452 40.8209V27.0896M33.6452 27.0896C33.6452 23.3134 30.0968 21.9403 30.0968 21.9403C30.0968 21.9403 33.6452 20.5672 33.6452 16.791M33.6452 16.791C33.6452 13.0149 33.6452 11.6418 33.6452 7.86567M33.6452 16.791V7.86567M33.6452 7.86567C33.6452 4.08955 30.4516 1 26.5484 1M26.5484 1C22.6452 1 23.7097 1 19.4516 1M26.5484 1H19.4516" stroke="black"/>
<path d="M43.5806 1C44.6452 1 45 1.68657 45 2.71642V45.6269C45 46.3134 44.2903 46.6567 43.5806 46.6567H37.5484V42.8806H41.0968V4.77612H37.1936V1H40.3871H43.5806Z" fill="#EE030C"/>
<path d="M8.80645 1H2.41936C1.35484 1 1 1.68657 1 2.71642V45.6269C1.00001 46.3134 1.35484 46.6567 2.41936 46.6567H8.45161V42.8806H4.90323V4.77612H8.80645V1Z" fill="#EE030C"/>
<path d="M8.80645 1C8.80645 1 3.48387 1 2.41936 1M8.80645 1V4.77612H4.90323V42.8806H8.45161V46.6567M8.80645 1H2.41936M2.41936 1C1.35484 1 1 1.68657 1 2.71642M1 2.71642C1 3.74627 0.999999 44.9403 1 45.6269M1 2.71642V45.6269M1 45.6269C1.00001 46.3134 1.35484 46.6567 2.41936 46.6567M2.41936 46.6567C3.48387 46.6567 8.45161 46.6567 8.45161 46.6567M2.41936 46.6567H8.45161M43.5806 1C44.6452 1 45 1.68657 45 2.71642M43.5806 1C42.5161 1 40.3871 1 40.3871 1M43.5806 1H40.3871M45 2.71642C45 3.74627 45 44.9403 45 45.6269M45 2.71642V45.6269M45 45.6269C45 46.3134 44.2903 46.6567 43.5806 46.6567M43.5806 46.6567C42.871 46.6567 37.5484 46.6567 37.5484 46.6567M43.5806 46.6567H37.5484M37.5484 46.6567V42.8806H41.0968V4.77612H37.1936V1H40.3871" stroke="#EE030C"/>
</svg>
