<svg width="208" height="49" viewBox="0 0 208 49" fill="none" xmlns="http://www.w3.org/2000/svg">
<path fill-rule="evenodd" clip-rule="evenodd" d="M12.3548 8.01493V17.1343C12.3548 20.9925 15.9032 22.3955 15.9032 22.3955C15.9032 22.3955 12.3548 23.7985 12.3548 27.6567V41.6866C12.3548 45.5448 14.8387 48 18.7419 48H26.5484C30.4516 48 33.6452 45.5448 33.6452 41.6866V27.6567C33.6452 23.7985 30.0968 22.3955 30.0968 22.3955C30.0968 22.3955 33.6452 20.9925 33.6452 17.1343V8.01493C33.6452 4.15672 30.4516 1 26.5484 1H19.4516C15.1936 0.999998 12.3548 4.15672 12.3548 8.01493ZM20.1613 24.8508H25.8387C27.9678 24.8507 28.6774 25.5522 28.6774 27.6567V40.9851C28.6774 43.0896 27.9678 43.791 25.8387 43.7911H20.1613C18.0323 43.791 17.3226 43.0896 17.3226 40.9851V27.6567C17.3226 25.5522 18.0323 24.8507 20.1613 24.8508ZM20.1613 19.9403H25.8387C27.9678 19.9403 28.6774 18.8881 28.6774 16.7836V8.71644C28.6774 6.61194 27.9678 5.20896 25.8387 5.20898H20.1613C18.0323 5.20896 17.3226 6.61196 17.3226 8.71644V16.7836C17.3226 18.8881 18.0323 19.9403 20.1613 19.9403Z" fill="white"/>
<path d="M25.8387 24.8508C23.7097 24.8508 22.2903 24.8508 20.1613 24.8508M25.8387 24.8508C27.9678 24.8507 28.6774 25.5522 28.6774 27.6567M25.8387 24.8508H20.1613M20.1613 24.8508C18.0323 24.8507 17.3226 25.5522 17.3226 27.6567M17.3226 27.6567C17.3226 29.7612 17.3226 38.8806 17.3226 40.9851M17.3226 27.6567V40.9851M17.3226 40.9851C17.3226 43.0896 18.0323 43.791 20.1613 43.7911M20.1613 43.7911C22.2903 43.7911 23.7097 43.7911 25.8387 43.7911M20.1613 43.7911H25.8387M25.8387 43.7911C27.9678 43.791 28.6774 43.0896 28.6774 40.9851M28.6774 40.9851C28.6774 38.8806 28.6774 29.7612 28.6774 27.6567M28.6774 40.9851V27.6567M25.8387 19.9403C23.7097 19.9403 22.2903 19.9403 20.1613 19.9403M25.8387 19.9403C27.9678 19.9403 28.6774 18.8881 28.6774 16.7836M25.8387 19.9403H20.1613M20.1613 19.9403C18.0323 19.9403 17.3226 18.8881 17.3226 16.7836M17.3226 16.7836C17.3226 14.6791 17.3226 10.8209 17.3226 8.71644M17.3226 16.7836V8.71644M17.3226 8.71644C17.3226 6.61196 18.0323 5.20896 20.1613 5.20898M20.1613 5.20898C22.2903 5.209 23.7097 5.209 25.8387 5.20898M20.1613 5.20898H25.8387M25.8387 5.20898C27.9678 5.20896 28.6774 6.61194 28.6774 8.71644M28.6774 8.71644C28.6774 10.8209 28.6774 14.6791 28.6774 16.7836M28.6774 8.71644V16.7836M12.3548 8.01493C12.3548 11.8731 12.3548 17.1343 12.3548 17.1343M12.3548 8.01493C12.3548 4.15672 15.1936 0.999998 19.4516 1M12.3548 8.01493V17.1343M12.3548 17.1343C12.3548 20.9925 15.9032 22.3955 15.9032 22.3955C15.9032 22.3955 12.3548 23.7985 12.3548 27.6567M12.3548 27.6567C12.3548 27.6567 12.3548 37.8284 12.3548 41.6866M12.3548 27.6567V41.6866M12.3548 41.6866C12.3548 45.5448 14.8387 48 18.7419 48M18.7419 48C22.6452 48 22.6452 48 26.5484 48M18.7419 48H26.5484M26.5484 48C30.4516 48 33.6452 45.5448 33.6452 41.6866M33.6452 41.6866C33.6452 37.8284 33.6452 31.515 33.6452 27.6567M33.6452 41.6866V27.6567M33.6452 27.6567C33.6452 23.7985 30.0968 22.3955 30.0968 22.3955C30.0968 22.3955 33.6452 20.9925 33.6452 17.1343M33.6452 17.1343C33.6452 13.2761 33.6452 11.8731 33.6452 8.01493M33.6452 17.1343V8.01493M33.6452 8.01493C33.6452 4.15672 30.4516 1 26.5484 1M26.5484 1C22.6452 1 23.7097 1 19.4516 1M26.5484 1H19.4516" stroke="white"/>
<path d="M43.5806 1C44.6452 1 45 1.70149 45 2.75373V46.597C45 47.2985 44.2903 47.6493 43.5806 47.6493H37.5484V43.791H41.0968V4.85821H37.1936V1H40.3871H43.5806Z" fill="#EE030C"/>
<path d="M8.80645 1H2.41936C1.35484 1 1 1.70149 1 2.75373V46.597C1 47.2985 1.35484 47.6493 2.41936 47.6493H8.45161V43.791H4.90323V4.85821H8.80645V1Z" fill="#EE030C"/>
<path d="M8.80645 1C8.80645 1 3.48387 1 2.41936 1M8.80645 1V4.85821H4.90323V43.791H8.45161V47.6493M8.80645 1H2.41936M2.41936 1C1.35484 1 1 1.70149 1 2.75373M1 2.75373C1 3.80597 0.999998 45.8955 1 46.597M1 2.75373V46.597M1 46.597C1 47.2985 1.35484 47.6493 2.41936 47.6493M2.41936 47.6493C3.48387 47.6493 8.45161 47.6493 8.45161 47.6493M2.41936 47.6493H8.45161M43.5806 1C44.6452 1 45 1.70149 45 2.75373M43.5806 1C42.5161 1 40.3871 1 40.3871 1M43.5806 1H40.3871M45 2.75373C45 3.80597 45 45.8955 45 46.597M45 2.75373V46.597M45 46.597C45 47.2985 44.2903 47.6493 43.5806 47.6493M43.5806 47.6493C42.871 47.6493 37.5484 47.6493 37.5484 47.6493M43.5806 47.6493H37.5484M37.5484 47.6493V43.791H41.0968V4.85821H37.1936V1H40.3871" stroke="#EE030C"/>
<path d="M43.5806 1C44.6452 1 45 1.70149 45 2.75373V46.597C45 47.2985 44.2903 47.6493 43.5806 47.6493H37.5484V43.791H41.0968V4.85821H37.1936V1H40.3871H43.5806Z" fill="#EE030C"/>
<path d="M8.80645 1H2.41936C1.35484 1 1 1.70149 1 2.75373V46.597C1 47.2985 1.35484 47.6493 2.41936 47.6493H8.45161V43.791H4.90323V4.85821H8.80645V1Z" fill="#EE030C"/>
<path d="M8.80645 1C8.80645 1 3.48387 1 2.41936 1M8.80645 1V4.85821H4.90323V43.791H8.45161V47.6493M8.80645 1H2.41936M2.41936 1C1.35484 1 1 1.70149 1 2.75373M1 2.75373C1 3.80597 0.999998 45.8955 1 46.597M1 2.75373V46.597M1 46.597C1 47.2985 1.35484 47.6493 2.41936 47.6493M2.41936 47.6493C3.48387 47.6493 8.45161 47.6493 8.45161 47.6493M2.41936 47.6493H8.45161M43.5806 1C44.6452 1 45 1.70149 45 2.75373M43.5806 1C42.5161 1 40.3871 1 40.3871 1M43.5806 1H40.3871M45 2.75373C45 3.80597 45 45.8955 45 46.597M45 2.75373V46.597M45 46.597C45 47.2985 44.2903 47.6493 43.5806 47.6493M43.5806 47.6493C42.871 47.6493 37.5484 47.6493 37.5484 47.6493M43.5806 47.6493H37.5484M37.5484 47.6493V43.791H41.0968V4.85821H37.1936V1H40.3871" stroke="#EE030C"/>
<path d="M59.5 48L55 48V1.50538H75V48H70.5V5.04301H59.5V48Z" fill="white"/>
<path d="M156.5 48V1H161.5V43.4022L163 43.4516L169 1H179V48H174L174.5 4.53763L173 4.53763L167 48L156.5 48Z" fill="white"/>
<path d="M184 43.913V48L190.5 48L195 4.74456L202 4.74456V48H207V1H188V4.06522L190 5.08696L186 43.4022L184 43.913Z" fill="white"/>
<path fill-rule="evenodd" clip-rule="evenodd" d="M80.5 48L85.5 48V30.3118H93C98.1237 30.3118 100.5 26.7742 100.5 23.2366V8.07527C100.5 4.53763 99.5 1.50538 95.5 1.50538H80.5V48ZM85.5 5.04301V25.7634H92.8763C95.5 25.7634 96 24.7527 96 22.2258V8.07527C96 6.05376 95 5.04301 92.8763 5.04301H85.5Z" fill="white"/>
<path fill-rule="evenodd" clip-rule="evenodd" d="M109.5 48L110.735 30.4521L120 30.4521L122.5 48H127L122 1.50538H106V4.03226L108.5 5.04301L104.5 48L109.5 48ZM113 5.04301L111 25.7634L120 25.7634L118 5.04301L113 5.04301Z" fill="white"/>
<path fill-rule="evenodd" clip-rule="evenodd" d="M132 1.50538V48L145 48C149 48 151.5 45.4731 151.5 41.4301V26.7742C151.378 24.3714 150.843 23.2382 149 21.7204C150.913 20.0302 151.342 18.8881 151.5 16.6667V7.06452C151.5 4.03226 150 1.50538 147 1.50538L132 1.50538ZM136.5 19.6989H144C145.5 19.6989 147 18.6882 147 16.6667V7.06452C147 5.54839 145.5 5.59783 144 5.59783L136.5 5.59783V19.6989ZM136.5 43.4516H145C146 43.4516 147.5 42.4409 147.5 39.914V27.2796C147.5 25.2581 146.5 24.2473 144 24.2473H136.5V43.4516Z" fill="white"/>
<path d="M85.5 30.3118V48L80.5 48V1.50538M85.5 30.3118C85.5 30.3118 87.8763 30.3118 93 30.3118M85.5 30.3118H93M93 30.3118C98.1237 30.3118 100.5 26.7742 100.5 23.2366M100.5 23.2366C100.5 19.6989 100.5 11.6129 100.5 8.07527M100.5 23.2366V8.07527M100.5 8.07527C100.5 4.53763 99.5 1.50538 95.5 1.50538M95.5 1.50538C91.5 1.50538 80.5 1.50538 80.5 1.50538M95.5 1.50538H80.5M85.5 25.7634V5.04301M85.5 25.7634C85.5 25.7634 90.2526 25.7634 92.8763 25.7634M85.5 25.7634H92.8763M85.5 5.04301C85.5 5.04301 90.7526 5.04301 92.8763 5.04301M85.5 5.04301H92.8763M92.8763 5.04301C95 5.04301 96 6.05376 96 8.07527M96 8.07527C96 10.0968 96 19.6989 96 22.2258M96 8.07527V22.2258M96 22.2258C96 24.7527 95.5 25.7634 92.8763 25.7634M132 48V1.50538M132 48C132 48 141 48 145 48M132 48L145 48M132 1.50538C132 1.50538 144 1.50538 147 1.50538M132 1.50538L147 1.50538M147 1.50538C150 1.50538 151.5 4.03226 151.5 7.06452M151.5 7.06452C151.5 10.0968 151.5 16.6667 151.5 16.6667M151.5 7.06452V16.6667M151.5 16.6667C151.342 18.8881 150.913 20.0302 149 21.7204C150.843 23.2382 151.378 24.3714 151.5 26.7742M151.5 26.7742C151.5 26.7742 151.5 37.3871 151.5 41.4301M151.5 26.7742V41.4301M151.5 41.4301C151.5 45.4731 149 48 145 48M145 43.4516C144 43.4516 136.5 43.4516 136.5 43.4516M145 43.4516C146 43.4516 147.5 42.4409 147.5 39.914M145 43.4516H136.5M136.5 43.4516V24.2473M136.5 24.2473C136.5 24.2473 141.5 24.2473 144 24.2473M136.5 24.2473H144M144 24.2473C146.5 24.2473 147.5 25.2581 147.5 27.2796M147.5 27.2796C147.5 29.3011 147.5 37.3871 147.5 39.914M147.5 27.2796V39.914M136.5 19.6989C136.5 19.6989 142.5 19.6989 144 19.6989M136.5 19.6989V5.59783M136.5 19.6989H144M144 19.6989C145.5 19.6989 147 18.6882 147 16.6667M147 16.6667C147 14.6452 147 8.58064 147 7.06452M147 16.6667V7.06452M147 7.06452C147 5.54839 145.5 5.59783 144 5.59783M144 5.59783C142.5 5.59783 136.5 5.59783 136.5 5.59783M144 5.59783L136.5 5.59783M55 48L59.5 48V5.04301H70.5V48H75V1.50538H55V48ZM109.5 48L110.735 30.4521L120 30.4521L122.5 48H127L122 1.50538H106V4.03226L108.5 5.04301L104.5 48L109.5 48ZM111 25.7634L113 5.04301L118 5.04301L120 25.7634L111 25.7634ZM156.5 1V48L167 48L173 4.53763L174.5 4.53763L174 48H179V1H169L163 43.4516L161.5 43.4022V1H156.5ZM184 48V43.913L186 43.4022L190 5.08696L188 4.06522V1H207V48H202V4.74456L195 4.74456L190.5 48L184 48Z" stroke="white"/>
</svg>
