<svg width="55" height="55" viewBox="0 0 55 55" fill="none" xmlns="http://www.w3.org/2000/svg">
<path d="M11.3695 1.73907C12.2495 1.73907 12.8186 2.01677 13.2359 2.52154L13.2739 2.57395C15.2642 5.31855 17.6449 8.87319 20.4054 13.2275C20.8522 13.9953 20.8719 15.0125 20.0689 16.4946L20.0596 16.5116L20.0511 16.529C19.7207 17.1997 18.8662 18.7628 17.4745 21.2768L17.1699 21.827L17.5338 22.3398C19.1049 24.5539 21.4713 27.2408 24.6145 30.3754C27.7522 33.5045 30.3939 35.876 32.5281 37.4444L33.0584 37.8341L33.626 37.5013C36.1193 36.0397 37.6951 35.1623 38.3638 34.8238L38.374 34.8186L38.3841 34.8132C39.1786 34.388 39.8866 34.2011 40.5109 34.2011C40.9782 34.2011 41.3566 34.3031 41.6662 34.4806C44.8274 36.4074 48.4116 38.7863 52.41 41.6079C52.9326 41.9928 53.2227 42.4964 53.2996 43.1936L53.2997 43.194C53.3747 43.8713 53.1801 44.6699 52.579 45.6584C52.2535 46.1128 51.7203 46.7909 50.9715 47.7184C50.2509 48.601 49.1401 49.745 47.6296 51.15C46.9 51.8286 46.2692 52.3089 45.7342 52.615C45.1923 52.925 44.8111 53.0203 44.562 53.0203H44.4739C37.5496 52.7371 28.7506 47.4939 18.0699 36.8132C7.37941 26.121 2.13597 17.334 1.86294 10.4014C1.86692 10.1528 1.96396 9.77163 2.26755 9.23099C2.57354 8.68609 3.05517 8.0398 3.7397 7.28944L3.74032 7.28876C5.14057 5.75104 6.26574 4.67039 7.09263 4.02275C7.98675 3.3416 8.73049 2.79774 9.32798 2.39501L9.34406 2.38417L9.35971 2.37272C9.93996 1.94799 10.5996 1.73907 11.3695 1.73907Z" stroke="white" stroke-width="2"/>
</svg>
