<svg width="48" height="50" viewBox="0 0 48 50" fill="none" xmlns="http://www.w3.org/2000/svg">
<path d="M1.48189 30.8414L1.48478 30.8385L23.1446 9.00031H39.463H39.8758L40.1684 8.70914L42.3471 6.54101L40.5236 8.47623L40.2514 8.7651V9.16202V26.859L19.1639 48.5162C18.8372 48.8401 18.4158 49.0002 17.9931 49.0002C17.57 49.0002 17.152 48.8399 16.8319 48.5198L1.48188 33.1698C1.17013 32.8581 1 32.4472 1 32.0056C1 31.564 1.17013 31.1532 1.48189 30.8414Z" stroke="white" stroke-width="2"/>
<path d="M40 9L33 16" stroke="white" stroke-width="2"/>
<path d="M34.8969 18.62C34.8969 20.8291 33.106 22.62 30.8969 22.62C28.6877 22.62 26.8969 20.8291 26.8969 18.62C26.8969 16.4108 28.6877 14.62 30.8969 14.62C32.0294 14.62 33.0505 15.0893 33.7795 15.8467C34.4724 16.5668 34.8969 17.5428 34.8969 18.62Z" stroke="white" stroke-width="2"/>
</svg>
